<svg width="37" height="46" viewBox="0 0 37 46" fill="none" xmlns="http://www.w3.org/2000/svg">
<path fill-rule="evenodd" clip-rule="evenodd" d="M27.5241 45.114H37L28.12 28.2929C30.3078 26.961 32.0023 25.2209 33.2035 23.0726C34.4475 20.9243 35.0696 18.5182 35.0696 15.8544C35.0696 11.0852 33.4609 7.26121 30.2435 4.38251C26.9832 1.46084 22.9078 0 18.0174 0H0V45.114H7.42305C8.59422 43.6637 12.8164 37.3008 8.71324 24.9912C23.5847 29.3088 27.0435 42.844 27.5241 45.114ZM12.8696 11.8585H17.76C19.1328 11.8585 20.2052 12.2452 20.9774 13.0186C21.7925 13.749 22.2 14.7802 22.2 16.1122C22.2 17.4441 21.7925 18.4753 20.9774 19.2057C20.2052 19.9361 19.1328 20.2798 17.76 20.2369H12.8696V11.8585Z" fill="white"/>
<path d="M16.9673 38.2979C17.3818 38.2978 17.3818 38.2979 17.7964 38.2979C18.8328 41.238 18.4182 45.4382 18.4182 45.4382H16.5527C16.5527 45.4382 17.5891 41.658 16.9673 38.2979Z" fill="white"/>
<path d="M13.0088 29.1611L13.3829 29.1611C13.3829 29.1611 15.6702 30.8133 17.089 35.6425C16.6022 35.6425 16.6383 35.559 16.1382 35.6425C15.1645 31.0986 13.0088 29.1611 13.0088 29.1611Z" fill="white"/>
</svg>
