<svg width="220" height="49" viewBox="0 0 220 49" fill="none" xmlns="http://www.w3.org/2000/svg">
<path fillRule="evenodd" clipRule="evenodd" d="M30.0886 48.6552H40.1571L30.7216 30.7819C33.0463 29.3667 34.8468 27.5177 36.1231 25.2351C37.445 22.9524 38.1059 20.3958 38.1059 17.5653C38.1059 12.4978 36.3966 8.43469 32.9779 5.37593C29.5137 2.27151 25.1835 0.719299 19.9871 0.719299H0.842773V48.6552H8.73019C9.9746 47.1141 14.461 40.3533 10.1011 27.2737C25.9027 31.8613 29.5779 46.2432 30.0886 48.6552ZM14.5173 13.3196H19.7136C21.1723 13.3196 22.3118 13.7305 23.1323 14.5522C23.9983 15.3283 24.4314 16.424 24.4314 17.8392C24.4314 19.2545 23.9983 20.3502 23.1323 21.1263C22.3118 21.9024 21.1723 22.2676 19.7136 22.222H14.5173V13.3196Z" fill="white"/>
<path d="M18.8711 41.413C19.3116 41.413 19.3116 41.413 19.7521 41.413C20.8533 44.5371 20.4128 49 20.4128 49H18.4307C18.4307 49 19.5318 44.9834 18.8711 41.413Z" fill="white"/>
<path d="M14.6655 31.7042L15.0631 31.7042C15.0631 31.7042 17.4934 33.4597 19.001 38.591C18.4837 38.591 18.5221 38.5023 17.9907 38.591C16.9561 33.7629 14.6655 31.7042 14.6655 31.7042Z" fill="white"/>
<path d="M72.9424 15.0034C72.9424 14.5589 72.7855 14.2189 72.4717 13.9836C72.1579 13.743 71.5931 13.492 70.7773 13.2305C69.9615 12.9638 69.3156 12.7023 68.8397 12.4461C67.5428 11.7453 66.8943 10.8013 66.8943 9.61421C66.8943 8.99711 67.0669 8.44799 67.412 7.96686C67.7624 7.4805 68.2618 7.10135 68.9103 6.82941C69.564 6.55746 70.2962 6.42149 71.1068 6.42149C71.9226 6.42149 72.6495 6.57054 73.2876 6.86863C73.9256 7.16149 74.4198 7.57725 74.7702 8.11591C75.1258 8.65456 75.3036 9.26644 75.3036 9.95152H72.9502C72.9502 9.42856 72.7855 9.02326 72.456 8.73562C72.1266 8.44276 71.6637 8.29633 71.0676 8.29633C70.4923 8.29633 70.0452 8.41923 69.7261 8.66502C69.4071 8.90559 69.2476 9.2246 69.2476 9.62205C69.2476 9.99336 69.4333 10.3045 69.8046 10.5556C70.1811 10.8066 70.7329 11.0419 71.4598 11.2616C72.7986 11.6642 73.7739 12.1637 74.3858 12.7599C74.9977 13.356 75.3036 14.0987 75.3036 14.9877C75.3036 15.9761 74.9297 16.7527 74.1818 17.3175C73.434 17.8771 72.4273 18.1569 71.1617 18.1569C70.2831 18.1569 69.483 17.9974 68.7613 17.6784C68.0396 17.3541 67.4878 16.9122 67.1061 16.3527C66.7295 15.7931 66.5413 15.1446 66.5413 14.4072H68.9025C68.9025 15.6676 69.6555 16.2977 71.1617 16.2977C71.7213 16.2977 72.1579 16.1853 72.4717 15.9604C72.7855 15.7303 72.9424 15.4113 72.9424 15.0034ZM86.1996 18H83.8463V13.105H79.2572V18H76.9039V6.57838H79.2572V11.2066H83.8463V6.57838H86.1996V18ZM94.8521 15.6466H90.7259L89.9415 18H87.4391L91.6908 6.57838H93.8716L98.1468 18H95.6444L94.8521 15.6466ZM91.3613 13.7404H94.2167L92.7812 9.46516L91.3613 13.7404ZM106.085 13.3325H101.567V18H99.2137V6.57838H106.65V8.4846H101.567V11.4341H106.085V13.3325ZM114.887 13.3325H110.369V18H108.015V6.57838H115.452V8.4846H110.369V11.4341H114.887V13.3325ZM126.199 12.5481C126.199 13.6724 126 14.6582 125.603 15.5054C125.205 16.3527 124.635 17.0064 123.893 17.4666C123.155 17.9268 122.308 18.1569 121.351 18.1569C120.404 18.1569 119.56 17.9294 118.817 17.4744C118.075 17.0194 117.499 16.371 117.091 15.529C116.683 14.6818 116.477 13.709 116.472 12.6108V12.046C116.472 10.9216 116.673 9.93322 117.076 9.08078C117.484 8.22312 118.056 7.56679 118.794 7.11181C119.536 6.6516 120.383 6.42149 121.335 6.42149C122.287 6.42149 123.132 6.6516 123.869 7.11181C124.612 7.56679 125.184 8.22312 125.587 9.08078C125.995 9.93322 126.199 10.919 126.199 12.0382V12.5481ZM123.814 12.0303C123.814 10.8327 123.6 9.92276 123.171 9.30043C122.742 8.6781 122.13 8.36693 121.335 8.36693C120.546 8.36693 119.936 8.67548 119.507 9.29259C119.079 9.90446 118.862 10.804 118.856 11.9911V12.5481C118.856 13.7143 119.071 14.619 119.5 15.2623C119.928 15.9055 120.546 16.2271 121.351 16.2271C122.141 16.2271 122.747 15.9186 123.171 15.3015C123.594 14.6792 123.809 13.7744 123.814 12.5873V12.0303ZM134.781 13.3325H130.262V18H127.909V6.57838H135.346V8.4846H130.262V11.4341H134.781V13.3325ZM140.648 11.7244L143.025 6.57838H145.598L141.849 13.8581V18H139.456V13.8581L135.706 6.57838H138.287L140.648 11.7244ZM154.533 6.57838V14.1013C154.533 15.3512 154.141 16.3396 153.357 17.0665C152.577 17.7934 151.51 18.1569 150.156 18.1569C148.822 18.1569 147.763 17.8039 146.979 17.0979C146.195 16.3919 145.794 15.4218 145.779 14.1876V6.57838H148.132V14.117C148.132 14.8648 148.31 15.4113 148.666 15.7565C149.026 16.0964 149.523 16.2664 150.156 16.2664C151.479 16.2664 152.151 15.5708 152.172 14.1797V6.57838H154.533ZM158.816 16.1095H163.813V18H156.463V6.57838H158.816V16.1095ZM67.0198 42V30.5784H70.5341C71.5382 30.5784 72.4351 30.8059 73.2248 31.2609C74.0197 31.7106 74.6394 32.3539 75.084 33.1906C75.5285 34.0221 75.7507 34.9687 75.7507 36.0303V36.5559C75.7507 37.6175 75.5311 38.5615 75.0918 39.3878C74.6577 40.2141 74.0432 40.8547 73.2483 41.3097C72.4534 41.7647 71.5565 41.9948 70.5577 42H67.0198ZM69.3731 32.4846V40.1095H70.5106C71.431 40.1095 72.1344 39.8088 72.6208 39.2074C73.1071 38.6059 73.3555 37.7457 73.366 36.6265V36.0225C73.366 34.8615 73.1254 33.9829 72.6443 33.3867C72.1632 32.7853 71.4598 32.4846 70.5341 32.4846H69.3731ZM84.3405 37.0501H79.822V40.1095H85.1249V42H77.4687V30.5784H85.1092V32.4846H79.822V35.2066H84.3405V37.0501ZM90.7259 39.1681L93.3146 30.5784H95.9347L91.9575 42H89.5022L85.5407 30.5784H88.1529L90.7259 39.1681ZM103.889 37.0501H99.3706V40.1095H104.673V42H97.0172V30.5784H104.658V32.4846H99.3706V35.2066H103.889V37.0501ZM108.407 40.1095H113.404V42H106.054V30.5784H108.407V40.1095ZM123.642 36.5481C123.642 37.6724 123.443 38.6582 123.045 39.5054C122.648 40.3527 122.078 41.0064 121.335 41.4666C120.598 41.9268 119.751 42.1569 118.794 42.1569C117.847 42.1569 117.002 41.9294 116.26 41.4744C115.517 41.0194 114.942 40.371 114.534 39.529C114.126 38.6818 113.92 37.709 113.914 36.6108V36.046C113.914 34.9216 114.116 33.9332 114.518 33.0808C114.926 32.2231 115.499 31.5668 116.236 31.1118C116.979 30.6516 117.826 30.4215 118.778 30.4215C119.73 30.4215 120.574 30.6516 121.312 31.1118C122.054 31.5668 122.627 32.2231 123.03 33.0808C123.438 33.9332 123.642 34.919 123.642 36.0382V36.5481ZM121.257 36.0303C121.257 34.8327 121.042 33.9228 120.614 33.3004C120.185 32.6781 119.573 32.3669 118.778 32.3669C117.988 32.3669 117.379 32.6755 116.95 33.2926C116.521 33.9045 116.304 34.804 116.299 35.9911V36.5481C116.299 37.7143 116.513 38.619 116.942 39.2623C117.371 39.9055 117.988 40.2271 118.794 40.2271C119.583 40.2271 120.19 39.9186 120.614 39.3015C121.037 38.6792 121.252 37.7744 121.257 36.5873V36.0303ZM127.705 37.9758V42H125.352V30.5784H129.807C130.665 30.5784 131.418 30.7353 132.067 31.0491C132.72 31.3628 133.222 31.81 133.573 32.3905C133.923 32.9657 134.098 33.6221 134.098 34.3594C134.098 35.4786 133.714 36.3624 132.945 37.0109C132.182 37.6541 131.123 37.9758 129.768 37.9758H127.705ZM127.705 36.0695H129.807C130.43 36.0695 130.903 35.9231 131.227 35.6303C131.557 35.3374 131.721 34.919 131.721 34.3751C131.721 33.8156 131.557 33.3632 131.227 33.018C130.898 32.6729 130.443 32.4951 129.862 32.4846H127.705V36.0695ZM138.797 30.5784L141.731 38.8622L144.649 30.5784H147.74V42H145.379V38.8779L145.614 33.4887L142.531 42H140.915L137.84 33.4965L138.075 38.8779V42H135.722V30.5784H138.797ZM156.667 37.0501H152.148V40.1095H157.451V42H149.795V30.5784H157.436V32.4846H152.148V35.2066H156.667V37.0501ZM168.12 42H165.767L161.185 34.485V42H158.832V30.5784H161.185L165.774 38.1091V30.5784H168.12V42ZM178.537 32.4846H175.039V42H172.685V32.4846H169.234V30.5784H178.537V32.4846Z" fill="white"/>
<line x1="53.5" y1="2.18557e-08" x2="53.5" y2="49" stroke="white"/>
</svg>
