<svg width="30" height="30" viewBox="0 0 30 30" fill="none" xmlns="http://www.w3.org/2000/svg">
<path fill-rule="evenodd" clip-rule="evenodd" d="M1.5625 5.625C1.5625 5.10723 1.98223 4.6875 2.5 4.6875H27.5C28.0178 4.6875 28.4375 5.10723 28.4375 5.625V24.375C28.4375 24.8928 28.0178 25.3125 27.5 25.3125H2.5C1.98223 25.3125 1.5625 24.8928 1.5625 24.375V5.625ZM3.4375 6.5625V23.4375H26.5625V6.5625H3.4375Z" fill="#2B49E3"/>
<path fill-rule="evenodd" clip-rule="evenodd" d="M1.75006 5.06256C2.06072 4.64834 2.64834 4.5644 3.06256 4.87506L15.0001 13.8282L26.9376 4.87506C27.3518 4.5644 27.9394 4.64834 28.2501 5.06256C28.5607 5.47677 28.4768 6.06439 28.0626 6.37506L15.5626 15.7501C15.2292 16.0001 14.7709 16.0001 14.4376 15.7501L1.93756 6.37506C1.52334 6.06439 1.4394 5.47677 1.75006 5.06256Z" fill="#2B49E3"/>
<path fill-rule="evenodd" clip-rule="evenodd" d="M1.5625 5.625C1.5625 5.10723 1.98223 4.6875 2.5 4.6875H15C15.5178 4.6875 15.9375 5.10723 15.9375 5.625C15.9375 6.14277 15.5178 6.5625 15 6.5625H3.4375V15C3.4375 15.5178 3.01777 15.9375 2.5 15.9375C1.98223 15.9375 1.5625 15.5178 1.5625 15V5.625Z" fill="#2B49E3"/>
<path fill-rule="evenodd" clip-rule="evenodd" d="M14.0625 5.625C14.0625 5.10723 14.4822 4.6875 15 4.6875H27.5C28.0178 4.6875 28.4375 5.10723 28.4375 5.625V15C28.4375 15.5178 28.0178 15.9375 27.5 15.9375C26.9822 15.9375 26.5625 15.5178 26.5625 15V6.5625H15C14.4822 6.5625 14.0625 6.14277 14.0625 5.625Z" fill="#2B49E3"/>
</svg>
