<svg xmlns="http://www.w3.org/2000/svg" width="229" height="60" xmlns:v="https://vecta.io/nano"><defs><linearGradient x1="0%" y1="-26.2943745%" x2="134.361744%" y2="134.186614%" id="A"><stop stop-color="#1737ed" offset="0%"/><stop stop-color="#4961ff" offset="100%"/></linearGradient></defs><g fillRule="evenodd"><rect fill="#fff" fillRule="nonzero" x="2" y="11" width="46" height="46" rx="23"/><path d="M29.5 60C13.208 60 0 46.569 0 30S13.208 0 29.5 0 59 13.431 59 30 45.792 60 29.5 60zm-9.411-40.976v2.172h.256c.529 0 1.003.429 1.003.922v16.859c0 .526-.474.922-1.003.922h-.256v2.174h.256c1.868 0 3.364-1.383 3.364-3.096V22.118c0-1.71-1.496-3.094-3.364-3.094h-.256zm-1.901 2.172h.272v-2.172h-.272c-1.812 0-3.347 1.383-3.347 3.094v16.859c0 1.712 1.535 3.096 3.347 3.096h.272v-2.174h-.272c-.547 0-.992-.395-.992-.922V22.118c0-.493.446-.922.992-.922zm13.41 11.182h-2.279l2.61 10.061h2.277l-2.608-10.061zm-5.898-5.671h1.991v-7.683h-1.991v7.683zm2.253 3.94h3.117l-.394-1.352 3.53-10.271h-2.328l-3.079 9.614h-3.098v13.435h2.253V30.648zm13.473 1.299l-1.856-2.313v3.447l.125.169c.534.635.696 1.406.696 2.242v3.984c0 .535-.43.937-.912.937h-1.497c-.482 0-.91-.402-.91-.937v-3.582h-2.142v3.582c0 1.74 1.356 3.147 3.052 3.147h1.497c1.662 0 3.052-1.406 3.052-3.147v-3.984c0-1.305-.303-2.542-1.105-3.545zm-3.516-1.215v-3.484l-.161-.197c-.518-.664-.678-1.393-.678-2.221v-2.688c0-.497.428-.928.91-.928h1.497c.482 0 .912.432.912.928v2.588h2.14v-2.588c0-1.723-1.39-3.116-3.052-3.116h-1.497c-1.662 0-3.052 1.425-3.052 3.116v2.688c0 1.291.286 2.521 1.071 3.512l1.91 2.391z" fill="url(#A)"/><path d="M76.116 37.567h.638v8.927h-.638v-1.479c-.523.982-1.506 1.62-2.744 1.62-1.825 0-3.305-1.441-3.305-3.329s1.48-3.329 3.305-3.329c1.238 0 2.22.638 2.744 1.62v-4.03zm-2.705 8.455c1.519 0 2.705-1.199 2.705-2.716s-1.187-2.716-2.705-2.716-2.705 1.199-2.705 2.716 1.187 2.716 2.705 2.716zm10.216-6.045c1.94 0 3.152 1.607 3.152 3.354l-.013.306h-5.781c.153 1.441 1.251 2.385 2.705 2.385 1.046 0 1.838-.485 2.208-1.161l.562.332c-.523.867-1.519 1.441-2.782 1.441-1.965 0-3.356-1.403-3.356-3.329 0-1.875 1.353-3.329 3.305-3.329zm0 .612c-1.455 0-2.514 1.008-2.642 2.423h5.13c-.14-1.556-1.238-2.423-2.488-2.423zm6.86 1.199c0-.765.702-1.199 1.531-1.199.702 0 1.365.306 1.633.969l.536-.306c-.345-.778-1.136-1.275-2.169-1.275-1.302 0-2.169.803-2.169 1.811 0 2.296 3.867 1.301 3.867 3.035 0 .803-.753 1.199-1.646 1.199-.957 0-1.646-.434-1.876-1.122l-.549.319c.306.816 1.149 1.416 2.425 1.416 1.365 0 2.284-.765 2.284-1.811 0-2.334-3.867-1.326-3.867-3.035zm7.702-3.214a.51.51 0 0 0 .51-.51.51.51 0 0 0-.51-.497.51.51 0 0 0-.51.497.51.51 0 0 0 .51.51zm-.319 7.92h.638v-6.377h-.638v6.377zm10.306-6.377h.638v6.071c0 1.913-1.417 2.997-3.178 2.997-1.493 0-2.552-.599-3.012-1.53l.562-.319c.332.676 1.046 1.237 2.45 1.237 1.595 0 2.54-.931 2.54-2.385v-1.173c-.523.982-1.506 1.62-2.744 1.62-1.825 0-3.305-1.441-3.305-3.329s1.48-3.329 3.305-3.329c1.238 0 2.22.638 2.744 1.62v-1.479zm-2.705 5.905c1.519 0 2.705-1.199 2.705-2.716s-1.187-2.716-2.705-2.716-2.705 1.199-2.705 2.716 1.187 2.716 2.705 2.716zm10.268-6.045c-.983 0-1.799.408-2.284 1.352v-1.212h-.638v6.377h.638v-3.367c0-1.722.983-2.538 2.233-2.538 1.2 0 1.876.765 1.876 1.939v3.966h.651v-3.966c0-1.543-.957-2.551-2.476-2.551zm7.396 5.65h-.791l-.485 2.653h.587l.689-2.653zm12.164 1.008c1.251 0 2.323-.638 2.833-1.62l-.536-.319c-.421.791-1.263 1.326-2.297 1.326-1.544 0-2.705-1.199-2.705-2.716s1.161-2.716 2.705-2.716c1.021 0 1.889.523 2.259 1.326l.523-.306c-.459-.995-1.531-1.632-2.782-1.632-1.927 0-3.356 1.441-3.356 3.329s1.429 3.329 3.356 3.329zm9.132 0c-1.863 0-3.356-1.441-3.356-3.329s1.493-3.329 3.356-3.329c1.85 0 3.343 1.441 3.343 3.329s-1.493 3.329-3.343 3.329zm0-.612c1.519 0 2.693-1.199 2.693-2.716s-1.174-2.716-2.693-2.716-2.705 1.199-2.705 2.716 1.187 2.716 2.705 2.716zm12.539-8.455h.638v8.927h-.638v-1.479c-.523.982-1.506 1.62-2.744 1.62-1.825 0-3.305-1.441-3.305-3.329s1.48-3.329 3.305-3.329c1.238 0 2.22.638 2.744 1.62v-4.03zm-2.705 8.455c1.519 0 2.705-1.199 2.705-2.716s-1.187-2.716-2.705-2.716-2.705 1.199-2.705 2.716 1.187 2.716 2.705 2.716zm10.216-6.045c1.94 0 3.152 1.607 3.152 3.354l-.013.306h-5.781c.153 1.441 1.251 2.385 2.705 2.385 1.046 0 1.838-.485 2.208-1.161l.562.332c-.523.867-1.519 1.441-2.782 1.441-1.965 0-3.356-1.403-3.356-3.329 0-1.875 1.353-3.329 3.305-3.329zm0 .612c-1.455 0-2.514 1.008-2.642 2.423h5.13c-.14-1.556-1.238-2.423-2.488-2.423zm7.256 5.038h-.791l-.485 2.653h.587l.689-2.653zm12.113-5.65c1.94 0 3.152 1.607 3.152 3.354l-.013.306h-5.781c.153 1.441 1.251 2.385 2.705 2.385 1.046 0 1.838-.485 2.208-1.161l.562.332c-.523.867-1.519 1.441-2.782 1.441-1.965 0-3.356-1.403-3.356-3.329 0-1.875 1.353-3.329 3.305-3.329zm0 .612c-1.455 0-2.514 1.008-2.642 2.423h5.13c-.14-1.556-1.238-2.423-2.488-2.423zm11.11-.472l-2.412 5.713-2.399-5.713h-.689l2.705 6.377h.778l2.693-6.377h-.676zm6.541 6.517c-1.863 0-3.356-1.441-3.356-3.329s1.493-3.329 3.356-3.329c1.85 0 3.344 1.441 3.344 3.329s-1.493 3.329-3.344 3.329zm0-.612c1.519 0 2.693-1.199 2.693-2.716s-1.174-2.716-2.693-2.716-2.705 1.199-2.705 2.716 1.187 2.716 2.705 2.716zm6.911.472h.638v-9.31h-.638v9.31zm9.323-6.377l-2.412 5.713-2.399-5.713h-.689l2.705 6.377h.778l2.693-6.377h-.676zm6.745-.14c1.94 0 3.152 1.607 3.152 3.354l-.013.306h-5.781c.153 1.441 1.251 2.385 2.705 2.385 1.046 0 1.838-.485 2.208-1.161l.562.332c-.523.867-1.519 1.441-2.782 1.441-1.965 0-3.356-1.403-3.356-3.329 0-1.875 1.353-3.329 3.305-3.329zm0 .612c-1.455 0-2.514 1.008-2.642 2.423h5.13c-.14-1.556-1.238-2.423-2.488-2.423zM80.61 18.208H69.268v3.206h3.926v11.368h3.49V21.414h3.926v-3.206zm5.017 11.368v-2.582h5.453v-3.165h-5.453v-2.415h5.998v-3.206h-9.488v14.574h9.597v-3.206h-6.107zm15.356 3.498c2.792 0 5.235-1.312 6.544-3.373l-3.01-1.666c-.654 1.124-1.985 1.791-3.534 1.791-2.705 0-4.45-1.728-4.45-4.331s1.745-4.331 4.45-4.331c1.549 0 2.857.666 3.534 1.791l3.01-1.666c-1.331-2.061-3.774-3.373-6.544-3.373-4.602 0-7.94 3.29-7.94 7.579s3.337 7.579 7.94 7.579zm16.686-14.866v5.58h-4.799v-5.58h-3.49v14.574h3.49v-5.788h4.799v5.788h3.49V18.208h-3.49zm14.614 0v7.912l-5.889-7.912h-2.617v14.574h3.49V24.87l5.889 7.912h2.617V18.208h-3.49zm13.393 14.866c-4.384 0-7.94-3.29-7.94-7.579s3.555-7.579 7.94-7.579 7.94 3.29 7.94 7.579-3.555 7.579-7.94 7.579zm0-3.248c2.487 0 4.45-1.728 4.45-4.331s-1.963-4.331-4.45-4.331-4.45 1.728-4.45 4.331 1.963 4.331 4.45 4.331zm13.393-.25V18.208h-3.49v14.574h8.943v-3.206h-5.453zm14.265 3.498c-4.384 0-7.94-3.29-7.94-7.579s3.555-7.579 7.94-7.579 7.94 3.29 7.94 7.579-3.555 7.579-7.94 7.579zm0-3.248c2.487 0 4.45-1.728 4.45-4.331s-1.963-4.331-4.45-4.331-4.45 1.728-4.45 4.331 1.963 4.331 4.45 4.331zm25.019-5.163h-7.656v2.915h4.079c-.545 1.395-1.876 2.249-3.904 2.249-2.966 0-4.799-1.811-4.799-4.289 0-2.561 1.919-4.372 4.493-4.372 1.723 0 3.097.75 3.73 1.707l2.966-1.624c-1.287-1.957-3.752-3.331-6.675-3.331-4.493 0-8.005 3.373-8.005 7.599 0 4.185 3.446 7.558 8.245 7.558 4.275 0 7.525-2.707 7.525-7.162v-1.249zm1.963-6.454v14.574h3.49V18.208h-3.49zm9.597 11.368v-2.582h5.453V23.83h-5.453v-2.415h5.998v-3.206h-9.488v14.574h9.597v-3.206h-6.107zm13.415 3.498c3.315 0 5.671-1.666 5.671-4.476 0-3.081-2.596-3.852-4.908-4.518-2.378-.687-2.748-1.145-2.748-1.811 0-.583.545-1.103 1.636-1.103 1.396 0 2.116.645 2.639 1.686l2.945-1.645c-1.112-2.144-3.076-3.29-5.584-3.29-2.639 0-5.126 1.624-5.126 4.435 0 2.79 2.225 3.831 4.493 4.435 2.29.604 3.163.958 3.163 1.853 0 .562-.414 1.187-2.072 1.187-1.723 0-2.661-.812-3.206-2.02l-3.01 1.666c.851 2.144 2.901 3.602 6.107 3.602z" fill="#fff"/></g></svg>