<svg width="23" height="23" viewBox="0 0 23 23" fill="none" xmlns="http://www.w3.org/2000/svg">
<path fill-rule="evenodd" clip-rule="evenodd" d="M3.60622 2.92994C2.78988 2.92994 2.33259 3.64415 2.54784 4.28212C3.5779 7.33482 5.48337 11.8779 8.29853 14.6931C11.1137 17.5083 15.6568 19.4137 18.7096 20.4438C19.3474 20.659 20.0617 20.2018 20.0617 19.3854V16.2792L17.356 14.7749L14.4705 16.2176C14.2299 16.3379 13.9564 16.3756 13.6923 16.325L13.9229 15.1224C13.6923 16.325 13.6927 16.3251 13.6923 16.325L13.6889 16.3243L13.6847 16.3235L13.6739 16.3214L13.6431 16.3149C13.6185 16.3097 13.5858 16.3025 13.5458 16.293C13.4657 16.2741 13.3558 16.2462 13.2212 16.2073C12.9525 16.1298 12.5823 16.0077 12.1528 15.8247C11.2986 15.4607 10.1798 14.8427 9.16437 13.8273C8.14913 12.8121 7.52951 11.6917 7.16392 10.8366C6.98007 10.4065 6.8571 10.0357 6.77887 9.76666C6.73968 9.63186 6.71149 9.52182 6.69237 9.44172C6.6828 9.40165 6.67548 9.369 6.67018 9.34441L6.66369 9.31362L6.66152 9.30289L6.66069 9.29871L6.66034 9.29693C6.66026 9.29654 6.66003 9.29534 7.86199 9.06155L6.66003 9.29534C6.60846 9.03024 6.64599 8.75552 6.76677 8.51395L8.20971 5.62801L6.71198 2.93L3.60622 2.92994ZM9.16427 9.19502C9.22023 9.3743 9.30179 9.60735 9.41574 9.87388C9.69674 10.5312 10.1612 11.3608 10.896 12.0956C11.6307 12.8302 12.4582 13.2927 13.1129 13.5717C13.3781 13.6847 13.6098 13.7655 13.7881 13.8208L16.2607 12.5845C16.2607 12.5845 16.2606 12.5845 16.2607 12.5845C16.984 12.2228 17.8393 12.2416 18.546 12.6345L21.2517 14.1388C22.0288 14.5708 22.5107 15.39 22.5107 16.2792V19.3854C22.5107 21.7327 20.2863 23.5605 17.9266 22.7642C14.8226 21.7169 9.80898 19.667 6.56683 16.4248C3.32469 13.1826 1.27474 8.16899 0.227398 5.06508C-0.568796 2.70537 1.25891 0.480957 3.60622 0.480957H6.71195C7.60161 0.480957 8.42124 0.96346 8.85307 1.74121L10.3509 4.43933C10.7431 5.14577 10.7616 6.00034 10.4002 6.72321C10.4001 6.72324 10.4002 6.72318 10.4002 6.72321L9.16427 9.19502Z" fill="#2B49E3"/>
</svg>
