<svg width="30" height="30" viewBox="0 0 30 30" fill="none" xmlns="http://www.w3.org/2000/svg">
<path fillRule="evenodd" clipRule="evenodd" d="M15 3.4375C12.7563 3.4375 10.9375 5.25634 10.9375 7.5C10.9375 9.74366 12.7563 11.5625 15 11.5625C17.2437 11.5625 19.0625 9.74366 19.0625 7.5C19.0625 5.25634 17.2437 3.4375 15 3.4375ZM9.0625 7.5C9.0625 4.22081 11.7208 1.5625 15 1.5625C18.2792 1.5625 20.9375 4.22081 20.9375 7.5C20.9375 10.7792 18.2792 13.4375 15 13.4375C11.7208 13.4375 9.0625 10.7792 9.0625 7.5Z" fill="#2B49E3"/>
<path fillRule="evenodd" clipRule="evenodd" d="M2.8125 27.5C2.8125 20.769 8.26905 15.3125 15 15.3125C21.731 15.3125 27.1875 20.769 27.1875 27.5C27.1875 28.0178 26.7678 28.4375 26.25 28.4375C25.7322 28.4375 25.3125 28.0178 25.3125 27.5C25.3125 21.8046 20.6954 17.1875 15 17.1875C9.30458 17.1875 4.6875 21.8046 4.6875 27.5C4.6875 28.0178 4.26777 28.4375 3.75 28.4375C3.23223 28.4375 2.8125 28.0178 2.8125 27.5Z" fill="#2B49E3"/>
</svg>
